<svg width="27" height="27" viewBox="0 0 27 27" fill="none" xmlns="http://www.w3.org/2000/svg">
<path d="M7.66667 11.6667H5C2.79067 11.6667 1 9.876 1 7.66667V5C1 2.79067 2.79067 1 5 1H7.66667C9.876 1 11.6667 2.79067 11.6667 5V7.66667C11.6667 9.876 9.876 11.6667 7.66667 11.6667Z" fill="#AFB0B2"/>
<path d="M21.888 11.6667H19.2213C17.012 11.6667 15.2213 9.876 15.2213 7.66667V5C15.2213 2.79067 17.012 1 19.2213 1H21.888C24.0973 1 25.888 2.79067 25.888 5V7.66667C25.888 9.876 24.0973 11.6667 21.888 11.6667Z" fill="#AFB0B2"/>
<path d="M7.66667 25.8853H5C2.79067 25.8853 1 24.0947 1 21.8853V19.2187C1 17.0093 2.79067 15.2187 5 15.2187H7.66667C9.876 15.2187 11.6667 17.0093 11.6667 19.2187V21.8853C11.6667 24.0947 9.876 25.8853 7.66667 25.8853Z" fill="#AFB0B2"/>
<path d="M21.888 25.8853H19.2213C17.012 25.8853 15.2213 24.0947 15.2213 21.8853V19.2187C15.2213 17.0093 17.012 15.2187 19.2213 15.2187H21.888C24.0973 15.2187 25.888 17.0093 25.888 19.2187V21.8853C25.888 24.0947 24.0973 25.8853 21.888 25.8853Z" fill="#AFB0B2"/>
<path d="M7.66667 11.6667H5C2.79067 11.6667 1 9.876 1 7.66667V5C1 2.79067 2.79067 1 5 1H7.66667C9.876 1 11.6667 2.79067 11.6667 5V7.66667C11.6667 9.876 9.876 11.6667 7.66667 11.6667Z" stroke="#AFB0B2" stroke-width="1.5" stroke-miterlimit="10" stroke-linecap="round" stroke-linejoin="round"/>
<path d="M21.888 11.6667H19.2213C17.012 11.6667 15.2213 9.876 15.2213 7.66667V5C15.2213 2.79067 17.012 1 19.2213 1H21.888C24.0973 1 25.888 2.79067 25.888 5V7.66667C25.888 9.876 24.0973 11.6667 21.888 11.6667Z" stroke="#AFB0B2" stroke-width="1.5" stroke-miterlimit="10" stroke-linecap="round" stroke-linejoin="round"/>
<path d="M7.66667 25.8853H5C2.79067 25.8853 1 24.0947 1 21.8853V19.2187C1 17.0093 2.79067 15.2187 5 15.2187H7.66667C9.876 15.2187 11.6667 17.0093 11.6667 19.2187V21.8853C11.6667 24.0947 9.876 25.8853 7.66667 25.8853Z" stroke="#AFB0B2" stroke-width="1.5" stroke-miterlimit="10" stroke-linecap="round" stroke-linejoin="round"/>
<path d="M21.888 25.8853H19.2213C17.012 25.8853 15.2213 24.0947 15.2213 21.8853V19.2187C15.2213 17.0093 17.012 15.2187 19.2213 15.2187H21.888C24.0973 15.2187 25.888 17.0093 25.888 19.2187V21.8853C25.888 24.0947 24.0973 25.8853 21.888 25.8853Z" stroke="#AFB0B2" stroke-width="1.5" stroke-miterlimit="10" stroke-linecap="round" stroke-linejoin="round"/>
</svg>
